<svg xmlns="http://www.w3.org/2000/svg" viewBox="0 0 464 104" shape-rendering="crispEdges">
  <rect fill="#1a0f00" width="464" height="104"/>

  <!-- single pixel border -->
  <rect fill="#8b4513" x="2" y="2" width="460" height="100"/>
  <rect fill="#2d1b00" x="4" y="4" width="456" height="96"/>

  <!-- scanlines -->
  <g opacity="0.04">
    <rect fill="#ffd700" y="6" width="464" height="1"/>
    <rect fill="#ffd700" y="10" width="464" height="1"/>
    <rect fill="#ffd700" y="14" width="464" height="1"/>
    <rect fill="#ffd700" y="18" width="464" height="1"/>
    <rect fill="#ffd700" y="22" width="464" height="1"/>
    <rect fill="#ffd700" y="26" width="464" height="1"/>
    <rect fill="#ffd700" y="30" width="464" height="1"/>
    <rect fill="#ffd700" y="34" width="464" height="1"/>
    <rect fill="#ffd700" y="38" width="464" height="1"/>
    <rect fill="#ffd700" y="42" width="464" height="1"/>
    <rect fill="#ffd700" y="46" width="464" height="1"/>
    <rect fill="#ffd700" y="50" width="464" height="1"/>
    <rect fill="#ffd700" y="54" width="464" height="1"/>
    <rect fill="#ffd700" y="58" width="464" height="1"/>
    <rect fill="#ffd700" y="62" width="464" height="1"/>
    <rect fill="#ffd700" y="66" width="464" height="1"/>
    <rect fill="#ffd700" y="70" width="464" height="1"/>
    <rect fill="#ffd700" y="74" width="464" height="1"/>
    <rect fill="#ffd700" y="78" width="464" height="1"/>
    <rect fill="#ffd700" y="82" width="464" height="1"/>
    <rect fill="#ffd700" y="86" width="464" height="1"/>
    <rect fill="#ffd700" y="90" width="464" height="1"/>
    <rect fill="#ffd700" y="94" width="464" height="1"/>
    <rect fill="#ffd700" y="98" width="464" height="1"/>
  </g>

  <!-- text shadow -->
  <g fill="#5c3000" transform="translate(2,2)">
    <!-- M -->
    <rect x="26" y="20" width="8" height="56"/>
    <rect x="66" y="20" width="8" height="56"/>
    <rect x="34" y="20" width="8" height="8"/>
    <rect x="58" y="20" width="8" height="8"/>
    <rect x="34" y="28" width="8" height="8"/>
    <rect x="58" y="28" width="8" height="8"/>
    <rect x="42" y="28" width="8" height="8"/>
    <rect x="50" y="28" width="8" height="8"/>
    <rect x="46" y="36" width="8" height="8"/>
    <!-- O -->
    <rect x="90" y="28" width="8" height="40"/>
    <rect x="98" y="20" width="24" height="8"/>
    <rect x="98" y="68" width="24" height="8"/>
    <rect x="122" y="28" width="8" height="40"/>
    <rect x="98" y="28" width="8" height="8"/>
    <rect x="114" y="28" width="8" height="8"/>
    <rect x="98" y="60" width="8" height="8"/>
    <rect x="114" y="60" width="8" height="8"/>
    <!-- X -->
    <rect x="146" y="20" width="8" height="16"/>
    <rect x="186" y="20" width="8" height="16"/>
    <rect x="154" y="36" width="8" height="8"/>
    <rect x="178" y="36" width="8" height="8"/>
    <rect x="162" y="44" width="8" height="8"/>
    <rect x="170" y="44" width="8" height="8"/>
    <rect x="154" y="52" width="8" height="8"/>
    <rect x="178" y="52" width="8" height="8"/>
    <rect x="146" y="60" width="8" height="16"/>
    <rect x="186" y="60" width="8" height="16"/>
    <!-- Y -->
    <rect x="210" y="20" width="8" height="16"/>
    <rect x="250" y="20" width="8" height="16"/>
    <rect x="218" y="36" width="8" height="8"/>
    <rect x="242" y="36" width="8" height="8"/>
    <rect x="226" y="44" width="16" height="8"/>
    <rect x="230" y="52" width="8" height="24"/>
  </g>

  <!-- main text -->
  <g fill="#f0a500">
    <!-- M -->
    <rect x="26" y="20" width="8" height="56"/>
    <rect x="66" y="20" width="8" height="56"/>
    <rect x="34" y="20" width="8" height="8"/>
    <rect x="58" y="20" width="8" height="8"/>
    <rect x="34" y="28" width="8" height="8"/>
    <rect x="58" y="28" width="8" height="8"/>
    <rect x="42" y="28" width="8" height="8"/>
    <rect x="50" y="28" width="8" height="8"/>
    <rect x="46" y="36" width="8" height="8"/>
    <!-- O -->
    <rect x="90" y="28" width="8" height="40"/>
    <rect x="98" y="20" width="24" height="8"/>
    <rect x="98" y="68" width="24" height="8"/>
    <rect x="122" y="28" width="8" height="40"/>
    <rect x="98" y="28" width="8" height="8"/>
    <rect x="114" y="28" width="8" height="8"/>
    <rect x="98" y="60" width="8" height="8"/>
    <rect x="114" y="60" width="8" height="8"/>
    <!-- X -->
    <rect x="146" y="20" width="8" height="16"/>
    <rect x="186" y="20" width="8" height="16"/>
    <rect x="154" y="36" width="8" height="8"/>
    <rect x="178" y="36" width="8" height="8"/>
    <rect x="162" y="44" width="8" height="8"/>
    <rect x="170" y="44" width="8" height="8"/>
    <rect x="154" y="52" width="8" height="8"/>
    <rect x="178" y="52" width="8" height="8"/>
    <rect x="146" y="60" width="8" height="16"/>
    <rect x="186" y="60" width="8" height="16"/>
    <!-- Y -->
    <rect x="210" y="20" width="8" height="16"/>
    <rect x="250" y="20" width="8" height="16"/>
    <rect x="218" y="36" width="8" height="8"/>
    <rect x="242" y="36" width="8" height="8"/>
    <rect x="226" y="44" width="16" height="8"/>
    <rect x="230" y="52" width="8" height="24"/>
  </g>

  <!-- top-edge highlights -->
  <g fill="#ffd700">
    <rect x="26" y="20" width="8" height="2"/>
    <rect x="34" y="20" width="8" height="2"/>
    <rect x="58" y="20" width="8" height="2"/>
    <rect x="66" y="20" width="8" height="2"/>
    <rect x="98" y="20" width="24" height="2"/>
    <rect x="146" y="20" width="8" height="2"/>
    <rect x="186" y="20" width="8" height="2"/>
    <rect x="210" y="20" width="8" height="2"/>
    <rect x="250" y="20" width="8" height="2"/>
  </g>

  <!-- tagline: derive -->
  <g fill="#cd853f">
    <rect x="282" y="34" width="4" height="4"/>
    <rect x="286" y="30" width="4" height="16"/>
    <rect x="278" y="38" width="4" height="4"/>
    <rect x="282" y="42" width="4" height="4"/>

    <rect x="294" y="34" width="4" height="4"/>
    <rect x="298" y="30" width="4" height="4"/>
    <rect x="302" y="34" width="4" height="4"/>
    <rect x="294" y="38" width="12" height="4"/>
    <rect x="298" y="42" width="8" height="4"/>

    <rect x="310" y="30" width="4" height="16"/>
    <rect x="314" y="30" width="4" height="4"/>

    <rect x="322" y="26" width="4" height="4"/>
    <rect x="322" y="34" width="4" height="12"/>

    <rect x="330" y="30" width="4" height="8"/>
    <rect x="338" y="30" width="4" height="8"/>
    <rect x="334" y="38" width="4" height="8"/>

    <rect x="346" y="34" width="4" height="4"/>
    <rect x="350" y="30" width="4" height="4"/>
    <rect x="354" y="34" width="4" height="4"/>
    <rect x="346" y="38" width="12" height="4"/>
    <rect x="350" y="42" width="8" height="4"/>
  </g>

  <!-- tagline: macros -->
  <g fill="#8b4513">
    <rect x="282" y="56" width="4" height="16"/>
    <rect x="286" y="56" width="4" height="4"/>
    <rect x="290" y="60" width="4" height="12"/>
    <rect x="294" y="56" width="4" height="4"/>
    <rect x="298" y="60" width="4" height="12"/>

    <rect x="306" y="60" width="4" height="4"/>
    <rect x="310" y="56" width="4" height="4"/>
    <rect x="314" y="60" width="4" height="8"/>
    <rect x="306" y="64" width="12" height="4"/>
    <rect x="310" y="68" width="8" height="4"/>

    <rect x="322" y="60" width="4" height="8"/>
    <rect x="326" y="56" width="8" height="4"/>
    <rect x="326" y="68" width="8" height="4"/>

    <rect x="338" y="56" width="4" height="16"/>
    <rect x="342" y="56" width="4" height="4"/>

    <rect x="350" y="60" width="4" height="8"/>
    <rect x="354" y="56" width="4" height="4"/>
    <rect x="354" y="68" width="4" height="4"/>
    <rect x="358" y="60" width="4" height="8"/>

    <rect x="366" y="56" width="8" height="4"/>
    <rect x="366" y="60" width="4" height="4"/>
    <rect x="366" y="64" width="8" height="4"/>
    <rect x="370" y="68" width="4" height="4"/>
    <rect x="366" y="72" width="8" height="4"/>
  </g>
</svg>
